<svg width="1075" height="790" viewBox="0 0 1075 790" fill="none" xmlns="http://www.w3.org/2000/svg">
<g clip-path="url(#clip0_2_1852)">
<mask id="mask0_2_1852" style="mask-type:luminance" maskUnits="userSpaceOnUse" x="626" y="125" width="250" height="250">
<path d="M876 125H626V375H876V125Z" fill="white"/>
</mask>
<g mask="url(#mask0_2_1852)">
<g opacity="0.552709">
<path d="M652.469 180.439C651.541 180.648 650.613 180.093 650.357 179.178L648.669 173.265C648.637 173.17 648.561 173.096 648.464 173.067L642.536 171.448C641.579 171.177 641.024 170.181 641.295 169.224C641.465 168.623 641.935 168.153 642.536 167.983L648.419 166.296C648.516 166.261 648.59 166.182 648.616 166.083L650.235 160.162C650.406 159.522 650.924 159.034 651.573 158.901C652.501 158.692 653.429 159.247 653.685 160.162L655.373 166.075C655.4 166.173 655.479 166.249 655.578 166.273L661.506 167.892C662.262 168.088 662.799 168.76 662.821 169.541C662.85 170.34 662.349 171.062 661.589 171.312L655.639 173.006C655.544 173.044 655.472 173.123 655.441 173.219L653.822 179.14C653.657 179.792 653.13 180.289 652.469 180.416V180.439Z" fill="#ABCAFF"/>
</g>
<g opacity="0.0141331">
<path d="M803.469 361.939C802.541 362.148 801.613 361.593 801.357 360.678L799.669 354.765C799.637 354.67 799.561 354.596 799.464 354.567L793.536 352.948C792.579 352.677 792.024 351.681 792.295 350.724C792.465 350.123 792.935 349.653 793.536 349.483L799.419 347.796C799.516 347.761 799.59 347.682 799.616 347.583L801.235 341.662C801.406 341.022 801.924 340.534 802.573 340.401C803.501 340.192 804.429 340.747 804.685 341.662L806.373 347.575C806.4 347.673 806.479 347.749 806.578 347.773L812.506 349.392C813.262 349.588 813.799 350.26 813.821 351.041C813.85 351.84 813.349 352.562 812.589 352.812L806.639 354.506C806.544 354.544 806.472 354.623 806.441 354.719L804.822 360.64C804.657 361.292 804.13 361.789 803.469 361.916V361.939Z" fill="#ABCAFF"/>
</g>
<g opacity="0.689075">
<path d="M850.969 322.939C850.041 323.148 849.113 322.593 848.857 321.678L847.169 315.765C847.137 315.67 847.061 315.596 846.964 315.567L841.036 313.948C840.079 313.677 839.524 312.681 839.795 311.724C839.965 311.123 840.435 310.653 841.036 310.483L846.919 308.796C847.016 308.761 847.09 308.682 847.116 308.583L848.735 302.662C848.906 302.022 849.424 301.534 850.073 301.401C851.001 301.192 851.929 301.747 852.185 302.662L853.873 308.575C853.9 308.673 853.979 308.749 854.078 308.773L860.006 310.392C860.762 310.588 861.299 311.26 861.321 312.041C861.35 312.84 860.849 313.562 860.089 313.812L854.139 315.506C854.044 315.544 853.972 315.623 853.941 315.719L852.322 321.64C852.157 322.292 851.63 322.789 850.969 322.916V322.939Z" fill="#ABCAFF"/>
</g>
<path d="M682.24 197.054L634.922 313.011C633.903 315.508 634.883 318.299 637.098 319.203L692.618 341.859C694.834 342.763 697.488 341.455 698.507 338.958L745.826 223.001C746.845 220.504 745.862 217.715 743.647 216.811L688.126 194.154C685.931 193.2 683.28 194.506 682.24 197.054Z" fill="#1BC37B"/>
<path d="M645.427 303.348L682.878 211.573C687.309 213.381 692.506 210.782 694.524 205.836L731.3 220.843C729.261 225.839 731.222 231.301 735.608 233.09L698.157 324.866C693.726 323.058 688.528 325.659 686.51 330.605L649.734 315.598C651.818 310.62 649.858 305.157 645.427 303.348ZM711.977 236.909C714.519 231.944 712.463 226.093 707.696 224.731C704.166 223.756 700.174 225.683 698.25 229.385C695.708 234.35 697.764 240.201 702.532 241.563C706.062 242.538 710.073 240.561 711.977 236.909ZM708.864 275.445C712.065 267.602 706.502 257.93 696.399 253.807C686.296 249.684 675.554 252.703 672.353 260.546C669.152 268.391 674.716 278.061 684.819 282.184C694.922 286.307 705.663 283.289 708.864 275.445ZM683.272 307.253C685.814 302.287 683.758 296.436 678.991 295.074C675.461 294.1 671.469 296.027 669.545 299.729C667.003 304.694 669.059 310.545 673.827 311.907C677.357 312.881 681.368 310.904 683.272 307.253Z" fill="#248E50"/>
<path d="M739.628 202.762L651.381 291.63C649.481 293.544 649.313 296.496 651.011 298.182L693.561 340.435C695.259 342.121 698.211 341.934 700.112 340.02L788.359 251.153C790.26 249.239 790.425 246.286 788.727 244.6L746.177 202.347C744.517 200.622 741.567 200.81 739.628 202.762Z" fill="#1BC37B"/>
<path d="M664.793 286.746L734.637 216.411C738.033 219.783 743.83 219.381 747.594 215.59L775.779 243.578C771.976 247.407 771.687 253.202 775.049 256.54L705.204 326.876C701.809 323.504 696.01 323.907 692.246 327.698L664.061 299.71C667.898 295.915 668.189 290.118 664.793 286.746ZM751.765 250.984C756.02 247.377 756.37 241.185 752.492 238.096C749.608 235.84 745.183 236.085 741.984 238.763C737.729 242.37 737.378 248.562 741.256 251.651C744.141 253.907 748.604 253.624 751.765 250.984ZM734.082 285.365C740.051 279.354 738.632 268.286 730.889 260.598C723.146 252.909 712.069 251.568 706.101 257.579C700.131 263.591 701.551 274.657 709.293 282.346C717.036 290.034 728.112 291.377 734.082 285.365ZM698.231 304.895C702.486 301.288 702.837 295.096 698.959 292.006C696.074 289.75 691.649 289.995 688.45 292.673C684.195 296.28 683.845 302.472 687.723 305.561C690.607 307.818 695.07 307.534 698.231 304.895Z" fill="#248E50"/>
<path d="M792.125 231.521L675.786 277.892C673.281 278.89 671.951 281.532 672.837 283.755L695.039 339.458C695.925 341.681 698.708 342.685 701.213 341.687L817.553 295.316C820.058 294.318 821.385 291.675 820.5 289.452L798.297 233.749C797.462 231.506 794.682 230.503 792.125 231.521Z" fill="#1BC37B"/>
<path d="M690.033 278.754L782.112 242.053C783.883 246.499 789.361 248.439 794.324 246.461L809.03 283.358C804.017 285.356 801.444 290.557 803.198 294.957L711.12 331.658C709.348 327.212 703.868 325.273 698.906 327.251L684.199 290.354C689.23 288.401 691.805 283.199 690.033 278.754ZM784.053 280.588C789.393 278.974 792.18 273.434 789.853 269.056C788.106 265.837 783.95 264.3 779.948 265.482C774.609 267.096 771.821 272.636 774.148 277.014C775.895 280.233 780.102 281.75 784.053 280.588ZM754.141 305.082C762.009 301.945 765.116 291.228 761.076 281.092C757.036 270.956 747.409 265.314 739.54 268.45C731.67 271.587 728.565 282.304 732.605 292.44C736.645 302.576 746.27 308.219 754.141 305.082ZM713.478 308.718C718.817 307.104 721.605 301.564 719.278 297.185C717.531 293.967 713.374 292.429 709.373 293.612C704.033 295.226 701.246 300.766 703.573 305.144C705.32 308.363 709.527 309.88 713.478 308.718Z" fill="#248E50"/>
<path d="M836.97 202.393C841.775 195.036 839.705 185.178 832.349 180.374C824.993 175.57 815.133 177.639 810.329 184.996C805.526 192.352 807.595 202.21 814.952 207.014C822.308 211.817 832.167 209.749 836.97 202.393Z" fill="#FFE385"/>
<path d="M823.411 196.085C831.769 184.152 828.869 167.704 816.937 159.349C805.005 150.993 788.554 153.892 780.199 165.824C771.843 177.756 774.742 194.204 786.675 202.56C798.607 210.915 815.056 208.018 823.411 196.085Z" fill="#FFD957"/>
<path d="M797.018 203.178C806.605 191.883 805.22 174.957 793.926 165.372C782.632 155.787 765.703 157.171 756.118 168.465C746.533 179.759 747.918 196.685 759.212 206.27C770.506 215.855 787.433 214.472 797.018 203.178Z" fill="#F6C10C"/>
<path d="M777.729 174.462C779.665 176.106 776.834 179.44 774.807 177.905C770.717 174.434 764.598 181.643 768.795 185.206C773.745 189.406 778.481 175.101 786.659 182.042C789.456 184.416 790.015 188.775 788.012 192.443L789.411 193.632C791.455 195.367 788.625 198.702 786.58 196.966L785.18 195.78C781.976 198.245 777.691 198.494 774.895 196.12C772.867 194.585 775.592 191.158 777.619 192.693C781.906 196.148 787.826 188.955 783.737 185.485C778.679 181.193 773.605 195.024 765.965 188.54C763.059 186.075 762.411 181.824 764.414 178.155L763.015 176.966C761.079 175.322 763.91 171.988 765.846 173.632L767.244 174.819C770.539 172.245 774.84 172.195 777.729 174.462Z" fill="#BA9513"/>
</g>
</g>
<g clip-path="url(#clip1_2_1852)">
<mask id="mask1_2_1852" style="mask-type:luminance" maskUnits="userSpaceOnUse" x="825" y="425" width="250" height="250">
<path d="M1075 425H825V675H1075V425Z" fill="white"/>
</mask>
<g mask="url(#mask1_2_1852)">
<g opacity="0.552709">
<path d="M851.469 480.439C850.541 480.648 849.613 480.093 849.357 479.178L847.669 473.265C847.637 473.17 847.561 473.096 847.464 473.067L841.536 471.448C840.579 471.177 840.024 470.181 840.295 469.224C840.465 468.623 840.935 468.153 841.536 467.983L847.419 466.296C847.516 466.261 847.59 466.182 847.616 466.083L849.235 460.162C849.406 459.522 849.924 459.034 850.573 458.901C851.501 458.692 852.429 459.247 852.685 460.162L854.373 466.075C854.4 466.173 854.479 466.249 854.578 466.273L860.506 467.892C861.262 468.088 861.799 468.76 861.821 469.541C861.85 470.34 861.349 471.062 860.589 471.312L854.639 473.006C854.544 473.044 854.472 473.123 854.441 473.219L852.822 479.14C852.657 479.792 852.13 480.289 851.469 480.416V480.439Z" fill="#ABCAFF"/>
</g>
<g opacity="0.0141331">
<path d="M1002.47 661.939C1001.54 662.148 1000.61 661.593 1000.36 660.678L998.669 654.765C998.637 654.67 998.561 654.596 998.464 654.567L992.536 652.948C991.579 652.677 991.024 651.681 991.295 650.724C991.465 650.123 991.935 649.653 992.536 649.483L998.419 647.796C998.516 647.761 998.59 647.682 998.616 647.583L1000.23 641.662C1000.41 641.022 1000.92 640.534 1001.57 640.401C1002.5 640.192 1003.43 640.747 1003.69 641.662L1005.37 647.575C1005.4 647.673 1005.48 647.749 1005.58 647.773L1011.51 649.392C1012.26 649.588 1012.8 650.26 1012.82 651.041C1012.85 651.84 1012.35 652.562 1011.59 652.812L1005.64 654.506C1005.54 654.544 1005.47 654.623 1005.44 654.719L1003.82 660.64C1003.66 661.292 1003.13 661.789 1002.47 661.916V661.939Z" fill="#ABCAFF"/>
</g>
<g opacity="0.689075">
<path d="M1049.97 622.939C1049.04 623.148 1048.11 622.593 1047.86 621.678L1046.17 615.765C1046.14 615.67 1046.06 615.596 1045.96 615.567L1040.04 613.948C1039.08 613.677 1038.52 612.681 1038.8 611.724C1038.97 611.123 1039.44 610.653 1040.04 610.483L1045.92 608.796C1046.02 608.761 1046.09 608.682 1046.12 608.583L1047.73 602.662C1047.91 602.022 1048.42 601.534 1049.07 601.401C1050 601.192 1050.93 601.747 1051.19 602.662L1052.87 608.575C1052.9 608.673 1052.98 608.749 1053.08 608.773L1059.01 610.392C1059.76 610.588 1060.3 611.26 1060.32 612.041C1060.35 612.84 1059.85 613.562 1059.09 613.812L1053.14 615.506C1053.04 615.544 1052.97 615.623 1052.94 615.719L1051.32 621.64C1051.16 622.292 1050.63 622.789 1049.97 622.916V622.939Z" fill="#ABCAFF"/>
</g>
<path d="M881.24 497.054L833.922 613.011C832.903 615.508 833.883 618.299 836.098 619.203L891.618 641.859C893.834 642.763 896.488 641.455 897.507 638.958L944.826 523.001C945.845 520.504 944.862 517.715 942.647 516.811L887.126 494.154C884.931 493.2 882.28 494.506 881.24 497.054Z" fill="#1BC37B"/>
<path d="M844.427 603.348L881.878 511.573C886.309 513.381 891.506 510.782 893.524 505.836L930.3 520.843C928.261 525.839 930.222 531.301 934.608 533.09L897.157 624.866C892.726 623.058 887.528 625.659 885.51 630.605L848.734 615.598C850.818 610.62 848.858 605.157 844.427 603.348ZM910.977 536.909C913.519 531.944 911.463 526.093 906.696 524.731C903.166 523.756 899.174 525.683 897.25 529.385C894.708 534.35 896.764 540.201 901.532 541.563C905.062 542.538 909.073 540.561 910.977 536.909ZM907.864 575.445C911.065 567.602 905.502 557.93 895.399 553.807C885.296 549.684 874.554 552.703 871.353 560.546C868.152 568.39 873.716 578.061 883.819 582.184C893.922 586.307 904.663 583.289 907.864 575.445ZM882.272 607.253C884.814 602.287 882.758 596.436 877.991 595.074C874.461 594.1 870.469 596.027 868.545 599.729C866.003 604.694 868.059 610.545 872.827 611.907C876.357 612.881 880.368 610.904 882.272 607.253Z" fill="#248E50"/>
<path d="M938.628 502.762L850.381 591.63C848.481 593.544 848.313 596.496 850.011 598.182L892.561 640.435C894.259 642.121 897.211 641.934 899.112 640.02L987.359 551.153C989.26 549.239 989.425 546.286 987.727 544.6L945.177 502.347C943.517 500.622 940.567 500.81 938.628 502.762Z" fill="#1BC37B"/>
<path d="M863.793 586.746L933.637 516.411C937.033 519.783 942.83 519.381 946.594 515.59L974.779 543.578C970.976 547.407 970.687 553.202 974.049 556.54L904.204 626.876C900.809 623.504 895.01 623.907 891.246 627.698L863.061 599.71C866.898 595.915 867.189 590.118 863.793 586.746ZM950.765 550.984C955.02 547.377 955.37 541.185 951.492 538.096C948.608 535.84 944.183 536.085 940.984 538.763C936.729 542.37 936.378 548.562 940.256 551.651C943.141 553.907 947.604 553.624 950.765 550.984ZM933.082 585.365C939.051 579.354 937.632 568.286 929.889 560.598C922.146 552.909 911.069 551.568 905.101 557.579C899.131 563.591 900.551 574.657 908.293 582.346C916.036 590.034 927.112 591.377 933.082 585.365ZM897.231 604.895C901.486 601.288 901.837 595.096 897.959 592.006C895.074 589.75 890.649 589.995 887.45 592.673C883.195 596.28 882.845 602.472 886.723 605.561C889.607 607.818 894.07 607.534 897.231 604.895Z" fill="#248E50"/>
<path d="M991.125 531.521L874.786 577.892C872.281 578.89 870.951 581.532 871.837 583.755L894.039 639.458C894.925 641.681 897.708 642.685 900.213 641.687L1016.55 595.316C1019.06 594.318 1020.39 591.675 1019.5 589.452L997.297 533.749C996.462 531.506 993.682 530.503 991.125 531.521Z" fill="#1BC37B"/>
<path d="M889.033 578.754L981.112 542.053C982.883 546.499 988.361 548.439 993.324 546.461L1008.03 583.358C1003.02 585.356 1000.44 590.557 1002.2 594.957L910.12 631.658C908.348 627.212 902.868 625.273 897.906 627.251L883.199 590.354C888.23 588.401 890.805 583.199 889.033 578.754ZM983.053 580.588C988.393 578.974 991.18 573.434 988.853 569.056C987.106 565.837 982.95 564.299 978.948 565.482C973.609 567.096 970.821 572.636 973.148 577.014C974.895 580.233 979.102 581.75 983.053 580.588ZM953.141 605.082C961.009 601.945 964.116 591.228 960.076 581.092C956.036 570.956 946.409 565.314 938.54 568.45C930.67 571.587 927.565 582.304 931.605 592.44C935.645 602.576 945.27 608.219 953.141 605.082ZM912.478 608.718C917.817 607.104 920.605 601.564 918.278 597.185C916.531 593.967 912.374 592.429 908.373 593.612C903.033 595.226 900.246 600.766 902.573 605.144C904.32 608.363 908.527 609.88 912.478 608.718Z" fill="#248E50"/>
<path d="M1035.97 502.393C1040.78 495.036 1038.71 485.178 1031.35 480.374C1023.99 475.57 1014.13 477.639 1009.33 484.996C1004.53 492.352 1006.6 502.21 1013.95 507.014C1021.31 511.817 1031.17 509.749 1035.97 502.393Z" fill="#FFE385"/>
<path d="M1022.41 496.085C1030.77 484.152 1027.87 467.704 1015.94 459.349C1004 450.993 987.554 453.892 979.199 465.824C970.843 477.756 973.742 494.204 985.675 502.56C997.607 510.915 1014.06 508.018 1022.41 496.085Z" fill="#FFD957"/>
<path d="M996.018 503.178C1005.61 491.883 1004.22 474.957 992.926 465.372C981.632 455.787 964.703 457.171 955.118 468.465C945.533 479.759 946.918 496.685 958.212 506.27C969.506 515.855 986.433 514.472 996.018 503.178Z" fill="#F6C10C"/>
<path d="M976.729 474.462C978.665 476.106 975.834 479.44 973.807 477.905C969.717 474.434 963.598 481.643 967.795 485.206C972.745 489.406 977.481 475.101 985.659 482.042C988.456 484.416 989.015 488.775 987.012 492.443L988.411 493.632C990.455 495.367 987.625 498.702 985.58 496.966L984.18 495.78C980.976 498.245 976.691 498.494 973.895 496.12C971.867 494.584 974.592 491.158 976.619 492.693C980.906 496.148 986.826 488.955 982.737 485.485C977.679 481.193 972.605 495.024 964.965 488.54C962.059 486.075 961.411 481.824 963.414 478.155L962.015 476.966C960.079 475.322 962.91 471.988 964.846 473.632L966.244 474.819C969.539 472.245 973.84 472.195 976.729 474.462Z" fill="#BA9513"/>
</g>
</g>
<g clip-path="url(#clip2_2_1852)">
<mask id="mask2_2_1852" style="mask-type:luminance" maskUnits="userSpaceOnUse" x="282" y="0" width="250" height="250">
<path d="M532 0H282V250H532V0Z" fill="white"/>
</mask>
<g mask="url(#mask2_2_1852)">
<g opacity="0.552709">
<path d="M308.469 55.4392C307.541 55.6482 306.613 55.0934 306.357 54.1776L304.669 48.2648C304.637 48.1698 304.561 48.0961 304.464 48.0672L298.536 46.4484C297.579 46.1771 297.024 45.1807 297.295 44.2239C297.465 43.6227 297.935 43.153 298.536 42.9828L304.419 41.2956C304.516 41.2614 304.59 41.1816 304.616 41.0828L306.235 35.1624C306.406 34.5225 306.924 34.0338 307.573 33.9008C308.501 33.6918 309.429 34.2466 309.685 35.1624L311.373 41.0752C311.4 41.1732 311.479 41.2492 311.578 41.2728L317.506 42.8916C318.262 43.0877 318.799 43.7595 318.821 44.5408C318.85 45.3396 318.349 46.0616 317.589 46.3116L311.639 48.0064C311.544 48.0444 311.472 48.1227 311.441 48.2192L309.822 54.1396C309.657 54.7917 309.13 55.2895 308.469 55.4164V55.4392Z" fill="#ABCAFF"/>
</g>
<g opacity="0.0141331">
<path d="M459.469 236.939C458.541 237.148 457.613 236.593 457.357 235.678L455.669 229.765C455.637 229.67 455.561 229.596 455.464 229.567L449.536 227.948C448.579 227.677 448.024 226.681 448.295 225.724C448.465 225.123 448.935 224.653 449.536 224.483L455.419 222.796C455.516 222.761 455.59 222.682 455.616 222.583L457.235 216.662C457.406 216.022 457.924 215.534 458.573 215.401C459.501 215.192 460.429 215.747 460.685 216.662L462.373 222.575C462.4 222.673 462.479 222.749 462.578 222.773L468.506 224.392C469.262 224.588 469.799 225.26 469.821 226.041C469.85 226.84 469.349 227.562 468.589 227.812L462.639 229.506C462.544 229.544 462.472 229.623 462.441 229.719L460.822 235.64C460.657 236.292 460.13 236.789 459.469 236.916V236.939Z" fill="#ABCAFF"/>
</g>
<g opacity="0.689075">
<path d="M506.969 197.939C506.041 198.148 505.113 197.593 504.857 196.678L503.169 190.765C503.137 190.67 503.061 190.596 502.964 190.567L497.036 188.948C496.079 188.677 495.524 187.681 495.795 186.724C495.965 186.123 496.435 185.653 497.036 185.483L502.919 183.796C503.016 183.761 503.09 183.682 503.116 183.583L504.735 177.662C504.906 177.022 505.424 176.534 506.073 176.401C507.001 176.192 507.929 176.747 508.185 177.662L509.873 183.575C509.9 183.673 509.979 183.749 510.078 183.773L516.006 185.392C516.762 185.588 517.299 186.26 517.321 187.041C517.35 187.84 516.849 188.562 516.089 188.812L510.139 190.506C510.044 190.544 509.972 190.623 509.941 190.719L508.322 196.64C508.157 197.292 507.63 197.789 506.969 197.916V197.939Z" fill="#ABCAFF"/>
</g>
<path d="M338.24 72.0541L290.922 188.011C289.903 190.508 290.883 193.299 293.098 194.203L348.618 216.859C350.834 217.763 353.488 216.455 354.507 213.958L401.826 98.0012C402.845 95.5039 401.862 92.7147 399.647 91.8106L344.126 69.1545C341.931 68.2 339.28 69.5064 338.24 72.0541Z" fill="#1BC37B"/>
<path d="M301.427 178.348L338.878 86.5728C343.309 88.3809 348.506 85.7816 350.524 80.8356L387.3 95.8427C385.261 100.839 387.222 106.301 391.608 108.09L354.157 199.866C349.726 198.058 344.528 200.659 342.51 205.605L305.734 190.598C307.818 185.62 305.858 180.157 301.427 178.348ZM367.977 111.909C370.519 106.944 368.463 101.093 363.696 99.7308C360.166 98.7563 356.174 100.683 354.25 104.385C351.708 109.35 353.764 115.201 358.532 116.563C362.062 117.538 366.073 115.561 367.977 111.909ZM364.864 150.445C368.065 142.602 362.502 132.93 352.399 128.807C342.296 124.684 331.554 127.703 328.353 135.546C325.152 143.39 330.716 153.061 340.819 157.184C350.922 161.307 361.663 158.289 364.864 150.445ZM339.272 182.253C341.814 177.287 339.758 171.436 334.991 170.074C331.461 169.1 327.469 171.027 325.545 174.729C323.003 179.694 325.059 185.545 329.827 186.907C333.357 187.881 337.368 185.904 339.272 182.253Z" fill="#248E50"/>
<path d="M395.628 77.762L307.381 166.63C305.481 168.544 305.313 171.496 307.011 173.182L349.561 215.435C351.259 217.121 354.211 216.934 356.112 215.02L444.359 126.153C446.26 124.239 446.425 121.286 444.727 119.6L402.177 77.3471C400.517 75.6224 397.567 75.8095 395.628 77.762Z" fill="#1BC37B"/>
<path d="M320.793 161.746L390.637 91.4108C394.033 94.7829 399.83 94.3806 403.594 90.59L431.779 118.578C427.976 122.407 427.687 128.202 431.049 131.54L361.204 201.876C357.809 198.504 352.01 198.907 348.246 202.698L320.061 174.71C323.898 170.915 324.189 165.118 320.793 161.746ZM407.765 125.984C412.02 122.377 412.37 116.185 408.492 113.096C405.608 110.84 401.183 111.085 397.984 113.763C393.729 117.37 393.378 123.562 397.256 126.651C400.141 128.907 404.604 128.624 407.765 125.984ZM390.082 160.365C396.051 154.354 394.632 143.286 386.889 135.598C379.147 127.909 368.069 126.568 362.101 132.579C356.131 138.591 357.551 149.657 365.293 157.346C373.036 165.034 384.112 166.377 390.082 160.365ZM354.231 179.895C358.486 176.288 358.837 170.096 354.959 167.006C352.074 164.75 347.649 164.995 344.45 167.673C340.195 171.28 339.845 177.472 343.723 180.561C346.607 182.818 351.07 182.534 354.231 179.895Z" fill="#248E50"/>
<path d="M448.125 106.521L331.786 152.892C329.281 153.89 327.951 156.532 328.837 158.755L351.039 214.458C351.925 216.681 354.708 217.685 357.213 216.687L473.553 170.316C476.058 169.318 477.385 166.675 476.5 164.452L454.297 108.749C453.462 106.506 450.682 105.503 448.125 106.521Z" fill="#1BC37B"/>
<path d="M346.033 153.754L438.112 117.053C439.883 121.499 445.361 123.439 450.324 121.461L465.03 158.358C460.017 160.356 457.444 165.557 459.198 169.957L367.12 206.658C365.348 202.212 359.868 200.273 354.906 202.251L340.199 165.354C345.23 163.401 347.805 158.199 346.033 153.754ZM440.053 155.588C445.393 153.974 448.18 148.434 445.853 144.056C444.106 140.837 439.95 139.3 435.948 140.482C430.609 142.096 427.821 147.636 430.148 152.014C431.895 155.233 436.102 156.75 440.053 155.588ZM410.141 180.082C418.009 176.945 421.116 166.228 417.076 156.092C413.036 145.956 403.409 140.314 395.54 143.45C387.67 146.587 384.565 157.304 388.605 167.44C392.645 177.576 402.27 183.219 410.141 180.082ZM369.478 183.718C374.817 182.104 377.605 176.564 375.278 172.185C373.531 168.967 369.374 167.429 365.373 168.612C360.033 170.226 357.246 175.766 359.573 180.144C361.32 183.363 365.527 184.88 369.478 183.718Z" fill="#248E50"/>
<path d="M492.97 77.3926C497.775 70.0356 495.705 60.1775 488.349 55.374C480.993 50.5705 471.133 52.6395 466.329 59.9959C461.526 67.3523 463.595 77.2104 470.952 82.0139C478.308 86.8174 488.167 84.749 492.97 77.3926Z" fill="#FFE385"/>
<path d="M479.411 71.0852C487.769 59.1518 484.869 42.7044 472.937 34.3487C461.005 25.9931 444.554 28.8916 436.199 40.824C427.843 52.7564 430.743 69.2039 442.675 77.5595C454.607 85.9152 471.056 83.0176 479.411 71.0852Z" fill="#FFD957"/>
<path d="M453.018 78.1778C462.605 66.8831 461.22 49.9566 449.926 40.3717C438.632 30.7867 421.703 32.1709 412.118 43.4649C402.533 54.7588 403.918 71.6853 415.212 81.2702C426.506 90.8552 443.433 89.4718 453.018 78.1778Z" fill="#F6C10C"/>
<path d="M433.729 49.462C435.665 51.1059 432.834 54.4402 430.807 52.9049C426.718 49.4342 420.598 56.6434 424.795 60.2056C429.745 64.4063 434.481 50.1006 442.659 57.0419C445.456 59.4158 446.015 63.7746 444.012 67.4431L445.411 68.6321C447.455 70.3675 444.625 73.7018 442.58 71.9664L441.18 70.7802C437.977 73.2455 433.691 73.4937 430.895 71.1198C428.867 69.5845 431.592 66.1579 433.619 67.6932C437.906 71.1476 443.826 63.9555 439.737 60.4848C434.679 56.1926 429.605 70.0244 421.965 63.5399C419.06 61.0745 418.411 56.8235 420.414 53.155L419.015 51.966C417.079 50.3222 419.91 46.9879 421.846 48.6317L423.244 49.8186C426.539 47.2449 430.84 47.1946 433.729 49.462Z" fill="#BA9513"/>
</g>
</g>
<g clip-path="url(#clip3_2_1852)">
<mask id="mask3_2_1852" style="mask-type:luminance" maskUnits="userSpaceOnUse" x="0" y="305" width="626" height="485">
<path d="M626 305H0V790H626V305Z" fill="white"/>
</mask>
<g mask="url(#mask3_2_1852)">
<path d="M89.156 589.618C89.864 602.124 93.631 614.842 99.425 627.702H124.631C130.157 614.976 133.665 602.277 134.287 589.618H89.156Z" fill="#044598"/>
<path d="M130.205 609.851C130.205 609.985 121.906 610.09 111.675 610.09C101.444 610.09 93.135 609.985 93.135 609.851C93.135 609.717 101.434 609.612 111.675 609.612C121.915 609.612 130.205 609.717 130.205 609.851Z" fill="#FAFAFA"/>
<path d="M129.64 614.382C129.64 614.516 121.857 614.621 112.267 614.621C102.676 614.621 94.892 614.516 94.892 614.382C94.892 614.248 102.667 614.143 112.267 614.143C121.866 614.143 129.64 614.248 129.64 614.382Z" fill="#FAFAFA"/>
<path d="M99.837 597.832C99.971 597.832 100.076 600.433 100.076 603.636C100.076 606.84 99.971 609.44 99.837 609.44C99.703 609.44 99.598 606.84 99.598 603.636C99.598 600.433 99.703 597.832 99.837 597.832Z" fill="#FAFAFA"/>
<path d="M113.338 597.832C113.472 597.832 113.577 600.529 113.577 603.847C113.577 607.165 113.472 609.861 113.338 609.861C113.204 609.861 113.099 607.174 113.099 603.847C113.099 600.519 113.204 597.832 113.338 597.832Z" fill="#FAFAFA"/>
<path d="M126.016 597.727C126.15 597.727 126.255 600.471 126.255 603.856C126.255 607.241 126.15 609.985 126.016 609.985C125.882 609.985 125.777 607.241 125.777 603.856C125.777 600.471 125.882 597.727 126.016 597.727Z" fill="#FAFAFA"/>
<path d="M133.494 597.831C133.494 597.965 123.76 598.07 111.761 598.07C99.761 598.07 90.016 597.965 90.016 597.831C90.016 597.697 99.751 597.592 111.761 597.592C123.77 597.592 133.494 597.697 133.494 597.831Z" fill="#FAFAFA"/>
<path d="M111.76 602.375C111.626 602.375 111.511 569.655 111.511 529.295C111.511 488.926 111.596 456.205 111.73 456.205C111.864 456.205 111.979 488.926 111.979 529.295C111.979 569.655 111.894 602.375 111.76 602.375Z" fill="#044598"/>
<path d="M140.349 504.358C140.349 504.358 139.919 504.55 139.115 504.818C138.236 505.114 137.098 505.497 135.731 505.956C132.872 506.931 128.952 508.337 124.697 510.077C120.48 511.884 116.512 513.355 114.246 515.316C113.117 516.281 112.467 517.334 112.142 518.099C111.817 518.864 111.76 519.342 111.712 519.333C111.693 519.333 111.702 519.208 111.722 518.988C111.76 518.769 111.817 518.433 111.961 518.031C112.238 517.228 112.869 516.101 114.007 515.068C115.145 514.035 116.732 513.097 118.539 512.246C120.356 511.395 122.364 510.517 124.496 509.637C128.77 507.887 132.719 506.519 135.606 505.63C137.05 505.18 138.226 504.846 139.039 504.626C139.861 504.415 140.311 504.311 140.32 504.34L140.349 504.358Z" fill="#044598"/>
<path d="M149.729 481.333C149.729 481.333 149.624 481.477 149.385 481.696C149.107 481.955 148.763 482.28 148.333 482.681C147.358 483.57 146.029 484.776 144.413 486.239C141.028 489.251 136.438 493.342 131.371 497.856C126.274 502.388 121.876 506.719 118.826 509.98C117.296 511.605 116.091 512.953 115.279 513.9C114.896 514.34 114.581 514.693 114.332 514.98C114.112 515.229 113.988 515.353 113.978 515.344C113.969 515.334 114.064 515.192 114.256 514.924C114.456 514.656 114.743 514.264 115.135 513.786C115.91 512.801 117.086 511.423 118.577 509.76C121.57 506.432 125.949 502.053 131.055 497.511C136.161 492.989 140.818 488.925 144.193 485.999C145.847 484.574 147.214 483.408 148.209 482.547C148.658 482.175 149.021 481.869 149.318 481.629C149.576 481.419 149.719 481.324 149.729 481.333Z" fill="#044598"/>
<path d="M125.863 502.474C125.729 502.417 126.791 499.959 127.853 496.852C128.924 493.744 129.43 491.124 129.564 491.143C129.689 491.153 129.382 493.859 128.301 497.005C127.766 498.573 127.183 499.96 126.714 500.936C126.255 501.92 125.92 502.503 125.863 502.474Z" fill="#044598"/>
<path d="M111.789 522.275C111.789 522.275 111.482 521.969 111.004 521.366C110.469 520.687 109.8 519.817 108.997 518.785C107.305 516.605 104.972 513.593 102.361 510.294C99.741 506.995 97.34 504.041 95.591 501.899C94.768 500.885 94.08 500.025 93.535 499.356C93.057 498.753 92.799 498.409 92.827 498.38C92.856 498.361 93.152 498.667 93.678 499.231C94.204 499.795 94.941 500.637 95.849 501.679C97.656 503.763 100.105 506.689 102.734 509.998C105.354 513.296 107.648 516.346 109.273 518.584C110.086 519.703 110.728 520.611 111.168 521.252C111.598 521.892 111.827 522.256 111.808 522.275H111.789Z" fill="#044598"/>
<path d="M105.517 514.235C105.44 514.321 103.766 512.332 102.886 509.32C102.236 507.198 102.209 505.247 102.295 504.367L102.504 504.387C102.409 504.769 102.342 504.97 102.303 504.96C102.265 504.96 102.265 504.74 102.303 504.358L102.514 504.378C102.59 505.258 102.724 507.132 103.355 509.197C104.206 512.123 105.66 514.168 105.526 514.245L105.517 514.235Z" fill="#044598"/>
<path d="M97.427 504.051C97.37 504.118 96.825 503.44 95.591 502.991C94.367 502.513 92.522 502.416 90.495 502.588C88.468 502.741 86.661 503.095 85.37 503.42C84.079 503.745 83.285 503.994 83.257 503.927C83.238 503.869 83.993 503.506 85.274 503.095C86.565 502.693 88.391 502.273 90.457 502.12C92.503 501.947 94.444 502.101 95.706 502.685C96.987 503.249 97.456 504.051 97.417 504.061L97.427 504.051Z" fill="#044598"/>
<path d="M95.506 501.585C95.468 501.662 94.435 501.156 92.695 500.563C90.955 499.961 88.477 499.339 85.685 499.119C82.884 498.909 80.34 499.156 78.533 499.482C76.726 499.807 75.627 500.141 75.598 500.065C75.588 500.036 75.856 499.921 76.344 499.749C76.831 499.568 77.558 499.357 78.466 499.156C80.283 498.736 82.866 498.439 85.715 498.65C88.564 498.87 91.069 499.568 92.799 500.246C93.669 500.591 94.348 500.906 94.807 501.155C95.266 501.403 95.516 501.556 95.497 501.585H95.506Z" fill="#044598"/>
<path d="M111.723 491.144C111.599 491.173 110.68 487.989 109.676 484.03C108.672 480.062 107.956 476.83 108.09 476.792C108.214 476.763 109.132 479.947 110.136 483.906C111.14 487.864 111.857 491.106 111.723 491.144Z" fill="#044598"/>
<path d="M111.856 491.144C111.713 491.192 111.129 489.059 109.58 486.88C108.079 484.652 106.167 483.542 106.234 483.428C106.262 483.38 106.788 483.571 107.525 484.097C108.261 484.613 109.179 485.484 109.963 486.612C111.56 488.878 111.961 491.134 111.846 491.144H111.856Z" fill="#044598"/>
<path d="M111.761 584.933C111.713 584.933 111.618 584.15 111.245 582.754C110.881 581.367 110.193 579.397 109.055 577.084C106.799 572.465 102.678 566.603 97.457 560.742C94.866 557.787 92.351 554.996 90.219 552.319C88.087 549.651 86.327 547.107 85.046 544.86C83.755 542.613 82.923 540.682 82.436 539.324C82.197 538.645 82.015 538.109 81.919 537.737C81.814 537.373 81.766 537.172 81.785 537.172C81.824 537.163 82.063 537.918 82.608 539.257C83.143 540.586 84.023 542.479 85.333 544.688C86.643 546.897 88.412 549.402 90.553 552.05C92.695 554.699 95.21 557.472 97.811 560.436C103.05 566.316 107.152 572.254 109.361 576.949C110.47 579.291 111.111 581.299 111.426 582.714C111.579 583.422 111.685 583.977 111.713 584.36C111.761 584.742 111.78 584.933 111.761 584.942V584.933Z" fill="#044598"/>
<path d="M145.962 530.326C145.962 530.326 145.809 530.423 145.503 530.566C145.149 530.729 144.7 530.93 144.155 531.178C143.562 531.427 142.855 531.751 142.042 532.172C141.229 532.592 140.292 533.024 139.307 533.607C138.81 533.894 138.284 534.189 137.749 534.495C137.204 534.811 136.668 535.175 136.104 535.538C134.957 536.236 133.8 537.096 132.566 537.976C130.157 539.802 127.623 541.964 125.185 544.469C122.766 546.993 120.691 549.594 118.951 552.07C118.119 553.333 117.296 554.508 116.637 555.684C116.302 556.267 115.948 556.812 115.652 557.367C115.365 557.921 115.088 558.447 114.82 558.954C114.265 559.958 113.864 560.914 113.481 561.736C113.08 562.558 112.793 563.285 112.554 563.878C112.324 564.433 112.143 564.882 111.99 565.245C111.856 565.551 111.779 565.714 111.76 565.714C111.741 565.714 111.789 565.542 111.894 565.217C112.018 564.844 112.181 564.385 112.382 563.821C112.592 563.209 112.86 562.472 113.233 561.641C113.596 560.809 113.979 559.833 114.524 558.81C114.782 558.294 115.049 557.76 115.336 557.195C115.623 556.631 115.967 556.076 116.302 555.492C116.952 554.297 117.765 553.103 118.597 551.831C120.337 549.326 122.421 546.696 124.85 544.152C127.307 541.638 129.87 539.458 132.308 537.641C133.551 536.771 134.727 535.911 135.894 535.223C136.467 534.869 137.012 534.505 137.567 534.199C138.122 533.902 138.647 533.607 139.154 533.33C140.149 532.756 141.114 532.345 141.937 531.943C142.759 531.542 143.486 531.245 144.088 531.016C144.652 530.796 145.102 530.624 145.474 530.48C145.79 530.366 145.962 530.307 145.972 530.326H145.962Z" fill="#044598"/>
<path d="M125.519 544.028C125.519 544.028 125.701 543.225 126.647 542.355C127.565 541.485 129.229 540.672 131.179 540.615C133.12 540.567 134.803 541.102 135.951 541.542C137.108 541.992 137.777 542.365 137.758 542.422C137.729 542.489 137.012 542.231 135.845 541.858C134.679 541.504 133.044 541.035 131.198 541.083C129.372 541.141 127.785 541.848 126.867 542.604C125.93 543.359 125.595 544.067 125.529 544.028H125.519Z" fill="#044598"/>
<path d="M122.46 547.184C122.326 547.107 123.483 545.425 123.751 542.997C124.057 540.578 123.321 538.664 123.464 538.626C123.512 538.607 123.77 539.047 123.999 539.84C124.219 540.634 124.372 541.781 124.229 543.044C124.076 544.306 123.674 545.386 123.273 546.113C122.871 546.839 122.517 547.212 122.479 547.174L122.46 547.184Z" fill="#044598"/>
<path d="M137.596 555.741C137.596 555.741 137.118 556.028 136.238 556.497C135.368 556.984 134.135 557.74 132.729 558.82C131.314 559.901 129.736 561.325 128.121 563.027C126.505 564.739 124.831 566.728 123.129 568.85C119.725 573.124 116.541 576.901 114.639 579.913C113.673 581.405 112.965 582.667 112.506 583.556C112.038 584.436 111.799 584.933 111.761 584.923C111.742 584.923 111.789 584.78 111.885 584.541C111.99 584.302 112.124 583.929 112.344 583.48C112.755 582.562 113.424 581.271 114.361 579.741C116.216 576.653 119.372 572.818 122.766 568.554C124.468 566.422 126.16 564.433 127.805 562.721C129.459 561.019 131.075 559.604 132.528 558.543C133.982 557.482 135.254 556.765 136.152 556.325C136.602 556.095 136.965 555.961 137.214 555.856C137.462 555.761 137.586 555.713 137.596 555.722V555.741Z" fill="#044598"/>
<path d="M138.102 565.217C138.102 565.284 137.012 565.418 135.243 565.628C133.484 565.858 131.026 566.154 128.454 566.967C125.892 567.799 123.76 569.07 122.373 570.16C120.968 571.241 120.308 572.14 120.25 572.082C120.231 572.063 120.365 571.824 120.671 571.422C120.977 571.021 121.474 570.485 122.163 569.893C123.53 568.716 125.681 567.368 128.311 566.508C130.94 565.676 133.436 565.437 135.214 565.284C137.002 565.15 138.102 565.14 138.112 565.198L138.102 565.217Z" fill="#044598"/>
<path d="M121.082 571.042C120.929 570.956 122.22 568.986 123.224 566.338C124.161 563.66 124.381 561.318 124.553 561.346C124.61 561.346 124.611 561.939 124.506 562.886C124.391 563.823 124.171 565.133 123.674 566.5C123.177 567.877 122.516 569.024 122.009 569.818C121.503 570.612 121.139 571.08 121.082 571.042Z" fill="#044598"/>
<path d="M82.301 538.138C78.18 535.557 73.466 533.931 68.628 533.434C66.39 533.205 63.952 533.272 62.164 534.62C61.782 534.907 61.409 535.327 61.495 535.805C61.562 536.15 61.849 536.398 62.126 536.618C67.691 540.864 76.105 541.399 82.301 538.148" fill="#044598"/>
<path d="M81.957 537.746C78.859 535.327 75.75 532.898 73.121 529.973C70.501 527.047 68.369 523.576 67.585 519.732C67.346 518.566 67.269 517.227 68.025 516.309C75.062 521.807 80.599 528.921 81.957 537.746Z" fill="#044598"/>
<path d="M82.233 538.082C81.707 534.229 81.516 530.271 82.396 526.485C83.285 522.698 85.341 519.074 88.573 516.914C89.788 519.753 89.27 523.033 88.41 526.007C87.081 530.596 85.007 534.974 82.282 538.904" fill="#044598"/>
<path d="M89.138 550.454C84.95 550.96 81.298 553.169 78.171 555.999C75.044 558.83 72.816 562.645 71.898 566.766C76.01 566.507 79.49 563.61 82.024 560.369C84.548 557.118 86.308 553.552 89.081 550.511" fill="#044598"/>
<path d="M90.629 552.433C87.254 544.124 88.478 534.104 93.756 526.847C96.146 535.338 95.266 544.927 90.629 552.433Z" fill="#044598"/>
<path d="M99.751 563.286C95.946 563.047 92.083 563.955 88.784 565.858C85.485 567.761 82.76 570.648 81.049 574.052C80.819 574.511 80.609 575.104 80.924 575.515C81.192 575.879 81.718 575.907 82.167 575.879C85.849 575.64 89.119 573.421 91.815 570.897C94.511 568.373 96.854 565.457 99.837 563.267" fill="#044598"/>
<path d="M99.463 562.693C97.503 556.42 97.379 549.574 99.12 543.235C99.808 540.73 100.956 538.091 103.269 536.924C103.47 536.829 103.7 536.733 103.901 536.809C104.101 536.886 104.207 537.087 104.302 537.278C105.124 538.999 105.364 540.95 105.277 542.862C105.191 544.765 104.799 546.648 104.407 548.513C103.681 551.965 103.289 555.675 101.395 558.658C100.946 559.365 100.554 560.13 100.191 560.886C99.827 561.641 99.826 561.909 99.501 562.511" fill="#044598"/>
<path d="M130.555 567.266C125.226 562.683 122.103 554.813 122.476 547.787C122.502 547.27 122.598 546.669 123.05 546.415C123.747 546.028 124.509 546.78 124.923 547.447C128.614 553.345 130.586 560.301 130.555 567.266Z" fill="#044598"/>
<path d="M124.056 541.275C125.309 536.982 126.571 532.65 126.915 528.185C127.259 523.729 126.619 519.073 124.305 515.239C119.983 523.605 119.543 533.377 123.922 541.715" fill="#044598"/>
<path d="M138.619 533.913C143.677 524.724 153.994 517.382 164.425 516.359C160.4 526.389 149.414 534.133 138.619 533.913Z" fill="#044598"/>
<path d="M135.436 535.719C142.98 536.866 149.404 541.685 156.451 544.602C157.962 545.223 159.589 545.72 161.205 545.51C162.82 545.3 164.416 544.21 164.78 542.623C165.076 541.303 164.483 539.897 163.527 538.932C162.58 537.966 161.329 537.364 160.076 536.838C152.398 533.644 144.165 533.558 136.085 535.499" fill="#044598"/>
<path d="M131.075 541.007C132.786 541.495 133.37 542.384 134.718 543.531C139.308 547.442 144.805 550.263 150.648 551.716C151.259 551.869 152.053 551.926 152.359 551.381C152.627 550.903 152.292 550.32 151.948 549.89C149.5 546.82 146.001 544.726 142.329 543.359C138.648 541.992 135.464 540.338 131.075 540.691" fill="#044598"/>
<path d="M126.149 509.063C132.278 514.79 140.922 517.726 149.269 516.932C149.651 516.894 150.063 516.837 150.321 516.55C150.904 515.919 150.207 514.943 149.528 514.408C142.73 509.111 134.496 506.912 126.149 509.063Z" fill="#044598"/>
<path d="M131.983 506.919C140.091 500.838 151.202 499.012 160.83 502.157C157.197 505.733 152.157 507.665 147.08 508.191C142.003 508.717 136.926 508.152 131.983 506.919Z" fill="#044598"/>
<path d="M129.66 492.244C128.991 485.455 129.42 480.101 128.951 473.293C128.913 472.748 128.798 472.098 128.292 471.897C127.584 471.62 126.992 472.499 126.763 473.216C124.745 479.498 125.845 486.708 129.66 492.101" fill="#044598"/>
<path d="M129.172 492.998C133.771 490.158 137.222 486.44 140.406 482.08C142.624 479.039 144.498 475.405 143.991 471.676C140.874 471.609 137.91 473.33 135.883 475.701C133.856 478.072 132.651 481.027 131.753 484.02C130.854 487.003 130.224 490.072 129.172 493.008" fill="#044598"/>
<path d="M140.216 489.93C150.304 486.201 159.721 480.647 167.867 473.619C164.559 472.29 160.782 473.083 157.474 474.422C149.93 477.472 143.762 482.606 140.062 489.853" fill="#044598"/>
<path d="M132.28 496.709C137.386 497.264 142.568 497.627 147.636 496.786C152.617 495.954 157.322 493.984 161.968 492.024C162.351 491.861 162.772 491.67 162.944 491.288C163.125 490.876 162.934 490.37 162.59 490.064C162.255 489.758 161.806 489.614 161.366 489.49C156.308 488.075 150.849 488.735 145.877 490.417C140.905 492.1 136.822 494.089 132.27 496.719" fill="#044598"/>
<path d="M103.126 509.292C99.646 502.264 99.866 494.061 102.877 486.814C105 490.046 105.258 494.147 104.866 497.991C104.474 501.835 103.308 505.783 103.231 509.646" fill="#044598"/>
<path d="M89.214 502.273C80.513 502.11 71.821 505.812 65.912 512.199C70.253 512.878 74.719 511.759 78.668 509.837C82.616 507.906 86.126 505.2 89.606 502.523" fill="#044598"/>
<path d="M79.854 499.147C75.599 498.803 71.506 498.278 67.413 499.53C63.321 500.783 59.603 503.632 57.929 507.572C61.907 508.021 65.941 507.026 69.593 505.372C73.236 503.717 76.555 501.432 79.854 499.156" fill="#044598"/>
<path d="M93.708 499.291C89.883 496.786 85.954 494.233 81.498 493.191C77.042 492.149 71.878 492.923 68.77 496.279C72.375 498.392 76.755 498.65 80.934 498.641C85.112 498.641 90.247 498.593 94.186 499.989" fill="#044598"/>
<path d="M93.737 499.49C87.197 493.065 84.711 481.525 87.35 472.738C92.494 480.55 94.798 490.196 93.737 499.49Z" fill="#044598"/>
<path d="M111.722 481.286C112.955 478.418 113.826 475.406 114.935 472.489C116.044 469.573 117.42 466.695 119.504 464.381C121.598 462.067 124.487 460.338 127.613 460.185C125.663 469.029 119.791 476.926 111.884 481.343" fill="#044598"/>
<path d="M108.471 485.081C106.425 482.27 104.073 478.455 101.3 476.361C98.527 474.267 94.922 472.995 91.547 473.798C94.98 479.946 101.481 484.278 108.471 485.081Z" fill="#044598"/>
<path d="M109.121 481.526C107.782 478.122 106.434 474.689 105.889 471.075C105.344 467.461 105.679 463.598 107.524 460.443C111.119 467.231 112.276 474.517 109.303 481.603" fill="#044598"/>
<path d="M111.76 460.441C113.797 453.71 119.955 448.758 126.61 446.482C127.452 446.195 128.34 445.956 129.21 446.09C130.08 446.224 130.94 446.826 131.132 447.696C131.371 448.844 130.424 449.866 129.535 450.631C124.353 455.058 118.262 458.424 111.75 460.45" fill="#044598"/>
<path d="M111.826 454.934C112.084 450.593 112.352 446.195 113.767 442.083C115.182 437.972 117.898 434.109 121.856 432.311C122.525 436.691 120.594 441.051 118.261 444.827C115.928 448.595 113.117 452.162 111.721 456.369" fill="#044598"/>
<path d="M111.722 457.917C110.039 453.012 109.867 446.778 106.932 442.504C104.876 439.521 101.587 437.484 99.818 434.319C98.642 437.274 99.005 440.677 100.229 443.613C101.462 446.548 103.49 449.073 105.66 451.396C107.83 453.719 109.695 455.46 111.712 457.917" fill="#044598"/>
<path d="M127.612 563.246C132.24 555.702 141.113 550.779 149.957 550.33C148.934 553.925 145.98 556.717 142.652 558.409C139.325 560.102 135.596 560.838 131.924 561.545C130.5 561.823 128.539 562.128 127.612 563.246Z" fill="#044598"/>
<path d="M125.776 567.779C134.037 569.93 143.523 567.836 150.398 562.769C146.325 560.703 141.525 560.11 137.069 561.133C132.614 562.147 128.549 564.145 125.776 567.779Z" fill="#044598"/>
<path d="M198.148 478.745C197.138 475.515 193.938 473.115 190.558 473.025C191.428 470.565 189.748 467.705 187.348 466.675C184.948 465.635 182.128 466.105 179.768 467.225C178.098 468.015 176.548 469.125 174.738 469.525C172.368 470.055 169.918 469.315 167.498 469.235C162.548 469.075 157.628 471.935 155.328 476.315C154.518 477.855 154.018 479.535 153.128 481.025C152.418 482.215 151.468 483.255 150.768 484.455C148.728 487.915 149.068 492.625 151.588 495.765L185.708 487.925C188.488 489.855 192.488 489.795 195.218 487.785C197.948 485.775 199.188 481.975 198.168 478.745H198.148Z" fill="black"/>
<path d="M168.428 561.98C160.428 561.91 153.948 555.27 153.848 547.05L153.228 497.54C152.648 484.25 159.688 472.82 172.628 472.59L173.828 472.64C185.868 473.15 195.518 483.09 195.988 495.47C196.428 507 196.898 518.13 196.578 524.29C195.908 537.04 183.298 538.3 183.298 538.3C183.268 538.3 183.268 543.06 183.268 546.81C183.278 555.23 176.618 562.05 168.428 561.97V561.98Z" fill="#FFBF9D"/>
<path d="M153.639 506.493C153.429 506.393 145.219 503.543 145.139 512.273C145.059 521.003 153.599 519.283 153.619 519.033C153.639 518.783 153.639 506.493 153.639 506.493Z" fill="#FFBF9D"/>
<path d="M183.288 538.39C183.288 538.39 175.448 538.53 167.338 532.79C167.338 532.79 170.838 542.55 183.258 541.92L183.288 538.38V538.39Z" fill="#FF9A6C"/>
<path d="M151.33 515.482C151.33 515.482 151.18 515.582 150.93 515.702C150.69 515.812 150.27 515.892 149.82 515.712C148.93 515.362 148.18 513.892 148.16 512.322C148.15 511.532 148.31 510.772 148.59 510.152C148.86 509.512 149.26 509.072 149.71 508.992C150.16 508.892 150.48 509.172 150.58 509.422C150.69 509.672 150.64 509.842 150.68 509.852C150.7 509.872 150.86 509.712 150.8 509.342C150.77 509.172 150.67 508.962 150.47 508.792C150.27 508.622 149.97 508.532 149.65 508.562C148.99 508.602 148.4 509.212 148.09 509.902C147.75 510.592 147.54 511.442 147.55 512.332C147.59 514.092 148.45 515.752 149.67 516.122C150.27 516.292 150.77 516.112 151.02 515.902C151.29 515.692 151.33 515.492 151.3 515.482H151.33Z" fill="#FF9A6C"/>
<path d="M259.208 568.319L239.358 601.389L260.148 600.769L278.478 570.129C279.178 568.949 278.338 567.459 276.958 567.459H260.718C260.098 567.459 259.528 567.789 259.208 568.319Z" fill="black"/>
<path d="M275.048 604.212L242.178 600.952L240.278 618.022L277.398 616.732L275.048 604.212Z" fill="#FFBF9D"/>
<path d="M300.018 614.212C299.588 614.812 298.838 615.132 298.118 614.952C297.978 614.912 297.828 614.862 297.678 614.792C296.698 614.302 297.128 612.212 297.128 612.212L292.308 610.622C292.308 610.622 285.228 613.752 282.508 616.142C279.788 618.532 274.308 615.382 274.308 615.382L273.948 604.522L284.348 597.732C284.348 597.732 283.708 598.132 284.578 596.692C285.448 595.252 288.218 596.282 288.218 596.282C288.788 595.592 290.698 595.612 290.698 595.612L298.538 597.792C300.148 598.242 301.478 599.402 302.138 600.942L304.668 606.822C304.668 606.822 305.838 610.952 305.418 611.802C304.768 613.082 303.388 612.562 303.388 612.562C303.388 612.562 302.598 615.032 301.918 615.012C301.238 614.992 300.018 614.222 300.018 614.222V614.212Z" fill="#FFBF9D"/>
<path d="M244.369 616.721L338.689 614.071C340.179 614.031 341.669 614.291 343.049 614.881C346.479 616.341 352.649 620.091 356.879 629.071C363.019 642.111 391.609 697.041 391.609 697.041L362.689 711.861L327.219 646.071L217.909 636.791L219.169 628.051L244.379 616.721H244.369Z" fill="black"/>
<path d="M354.088 700.301L369.158 726.171L370.158 732.711C370.768 736.711 374.508 739.461 378.508 738.841L424.378 731.801C426.678 731.451 428.178 729.011 427.208 726.901C426.838 726.091 426.178 725.421 425.018 725.121C421.178 724.141 391.578 713.281 391.578 713.281L379.228 688.561L354.058 700.311L354.088 700.301Z" fill="#E0E0E0"/>
<path d="M366.718 706.282C366.598 706.372 365.088 704.502 363.328 702.122C361.578 699.742 360.248 697.742 360.358 697.662C360.478 697.572 361.988 699.442 363.748 701.822C365.498 704.202 366.828 706.202 366.718 706.282Z" fill="black"/>
<path d="M375.718 702.66C375.608 702.74 374.058 700.88 372.558 698.3C371.048 695.72 370.198 693.45 370.328 693.4C370.468 693.34 371.518 695.49 373.008 698.04C374.488 700.59 375.838 702.57 375.718 702.66Z" fill="black"/>
<path d="M382.008 738.011C381.908 738.041 381.668 737.111 380.978 735.771C380.298 734.431 379.098 732.681 377.298 731.271C375.498 729.861 373.508 729.101 372.048 728.761C370.578 728.411 369.628 728.391 369.628 728.291C369.628 728.221 370.588 728.081 372.138 728.331C373.668 728.571 375.788 729.291 377.678 730.781C379.568 732.271 380.778 734.151 381.368 735.581C381.978 737.021 382.068 737.991 382.008 738.001V738.011Z" fill="black"/>
<path d="M412.918 733.56C412.858 733.59 412.478 732.97 412.188 731.85C411.898 730.73 411.808 729.05 412.408 727.35C412.998 725.65 414.018 724.37 414.798 723.53C415.588 722.7 416.168 722.28 416.218 722.34C416.288 722.41 415.818 722.93 415.118 723.81C414.438 724.7 413.528 725.96 412.978 727.54C412.418 729.12 412.438 730.67 412.598 731.76C412.768 732.85 412.998 733.52 412.908 733.56H412.918Z" fill="black"/>
<path d="M215.478 629.581C215.478 629.581 312.818 619.831 317.548 620.221C326.278 620.941 342.378 634.711 370.938 653.881C394.638 669.791 411.918 688.331 411.918 688.331L402.788 709.171C402.788 709.171 338.768 685.841 328.738 677.451C320.398 670.481 305.178 660.551 305.178 660.551L267.628 660.931L239.728 663.391C225.738 664.621 212.088 658.621 203.548 647.461L192.718 633.311L215.478 629.571V629.581Z" fill="black"/>
<path d="M382.118 703.871L409.088 714.481L413.578 719.341C416.328 722.311 420.958 722.491 423.938 719.741L458.008 688.231C459.708 686.651 459.588 683.791 457.608 682.581C456.848 682.121 455.918 681.931 454.798 682.331C451.068 683.671 420.458 691.241 420.458 691.241L399.958 674.891L382.118 703.881V703.871Z" fill="#E0E0E0"/>
<path d="M426.358 717.101C426.288 717.181 425.578 716.551 424.248 715.821C422.938 715.091 420.958 714.311 418.678 714.151C416.388 713.991 414.328 714.481 412.928 715.011C411.518 715.541 410.718 716.061 410.658 715.981C410.618 715.931 411.338 715.271 412.758 714.611C414.158 713.951 416.318 713.361 418.718 713.541C421.118 713.711 423.168 714.601 424.468 715.451C425.778 716.301 426.398 717.051 426.358 717.101Z" fill="black"/>
<path d="M449.478 696.11C449.448 696.17 448.788 695.87 447.918 695.1C447.048 694.34 446.038 692.99 445.578 691.24C445.118 689.5 445.248 687.87 445.418 686.74C445.608 685.61 445.858 684.94 445.928 684.96C446.018 684.98 445.928 685.68 445.848 686.79C445.788 687.9 445.738 689.46 446.168 691.08C446.588 692.7 447.468 693.98 448.218 694.79C448.978 695.6 449.538 696.02 449.478 696.11Z" fill="black"/>
<path d="M400.638 697.411C400.598 697.541 397.778 696.871 394.448 695.621C391.108 694.371 388.548 693.011 388.608 692.891C388.668 692.751 391.318 693.891 394.638 695.131C397.948 696.381 400.688 697.271 400.648 697.411H400.638Z" fill="black"/>
<path d="M405.208 688.539C405.128 688.669 402.808 687.429 399.898 686.029C396.978 684.619 394.568 683.589 394.618 683.449C394.668 683.319 397.178 684.149 400.118 685.559C403.058 686.969 405.278 688.419 405.208 688.539Z" fill="black"/>
<path d="M164.278 551.031C164.278 552.211 173.518 556.011 177.688 554.341C184.038 551.801 183.258 546.811 183.258 546.811L186.778 550.531L222.148 604.421L248.438 621.771L206.348 635.101L162.238 584.421L164.258 551.021L164.278 551.031Z" fill="#F5F5F5"/>
<path d="M237.308 609.849L245.018 617.039L247.198 621.479L218.538 608.149L197.848 579.189C197.848 579.189 190.478 562.839 187.938 556.979C185.278 550.819 183.278 547.329 183.278 547.329L183.248 542.459L193.708 551.879L202.428 554.479L216.988 577.489L237.308 609.849Z" fill="#044598"/>
<path d="M228.478 582.769C228.478 582.769 224.997 575.349 222.157 569.179C215.757 555.279 200.667 553.959 200.667 553.959L217.348 600.219L237.788 614.709C237.788 614.709 243.597 616.739 244.327 614.709C244.327 614.709 248.588 599.369 248.458 599.309C248.327 599.249 233.917 594.939 233.917 594.939L228.118 581.979" fill="#044598"/>
<path d="M193.808 552.2C193.808 552.2 194.168 552.7 194.558 553.68C194.968 554.65 195.388 556.1 195.868 557.82L196.208 559.03L195.438 558.03C194.488 556.8 193.198 555.49 191.768 554.17C190.618 553.1 189.478 552.12 188.448 551.23L188.868 551.07C188.608 553.04 188.768 554.78 188.708 556.01C188.678 557.24 188.518 557.95 188.468 557.94C188.408 557.94 188.458 557.23 188.398 556.01C188.368 554.8 188.128 553.07 188.358 551L188.408 550.53L188.778 550.84C189.828 551.71 190.978 552.69 192.138 553.76C193.578 555.1 194.868 556.44 195.818 557.74L195.378 557.95C194.948 556.21 194.598 554.77 194.278 553.78C193.968 552.79 193.748 552.23 193.798 552.2H193.808Z" fill="black"/>
<path d="M153.128 532.94L152.198 534.68L147.998 542.51L130.528 553.65L166.458 596.35L182.858 635.11L222.158 647.41C222.158 647.41 203.458 618.65 197.648 603.96C191.838 589.27 191.248 589.95 185.948 579.18C180.878 568.87 176.348 555.83 176.348 555.83L153.138 532.93L153.128 532.94Z" fill="#044598"/>
<path d="M176.788 559.72C176.788 559.72 176.588 559.42 176.298 558.83C175.978 558.16 175.568 557.3 175.068 556.25L175.338 556.28C174.588 557.36 173.758 558.75 172.928 560.43C172.098 562.11 171.168 564.05 169.798 565.94L169.598 566.22L169.378 565.95C167.768 563.96 165.918 561.84 163.928 559.67C159.568 554.93 155.418 550.84 152.448 547.84C151.018 546.39 149.838 545.18 148.938 544.27C148.118 543.42 147.678 542.93 147.708 542.9C147.738 542.87 148.228 543.3 149.088 544.11C150.018 544.99 151.238 546.15 152.718 547.55C155.758 550.48 159.968 554.53 164.338 559.28C166.338 561.45 168.178 563.6 169.788 565.61H169.368C170.718 563.78 171.668 561.89 172.528 560.22C173.388 558.54 174.278 557.15 175.078 556.09L175.238 555.87L175.338 556.12C175.788 557.19 176.148 558.07 176.438 558.76C176.688 559.37 176.798 559.71 176.778 559.72H176.788Z" fill="black"/>
<path d="M195.257 480.105C194.557 478.005 192.617 476.465 190.487 475.855C188.357 475.245 186.057 475.485 183.927 476.105L163.207 480.845C166.167 482.815 172.377 484.725 175.917 485.105C181.087 485.655 184.727 485.705 187.817 483.925C188.447 486.045 191.327 486.995 193.257 485.905C195.187 484.815 195.967 482.215 195.257 480.105Z" fill="black"/>
<path d="M161.578 485.285C161.938 483.015 163.638 481.175 165.818 480.445C167.658 479.825 169.678 479.835 171.558 480.515C176.338 482.255 184.508 484.865 186.638 483.195C189.708 480.795 190.438 479.225 190.438 479.225L192.128 481.055C193.508 480.275 189.378 475.695 186.008 474.115C180.908 471.735 173.108 470.255 168.398 471.625C162.728 473.275 158.018 476.175 155.178 481.475C152.328 486.775 151.258 492.955 151.418 499.015C151.468 500.865 151.128 506.155 152.918 506.565C154.298 506.885 156.068 507.495 155.968 510.165C155.928 511.135 156.198 512.125 156.848 512.835C158.398 514.535 160.298 512.935 161.178 511.335C163.048 507.915 163.258 503.835 163.418 499.915C163.538 497.125 163.648 494.285 162.888 491.605C162.888 491.605 161.628 488.155 161.518 486.235C161.498 485.915 161.518 485.595 161.568 485.275L161.578 485.285Z" fill="black"/>
<path d="M191.409 506.821C191.409 507.781 190.609 508.571 189.629 508.591C188.649 508.601 187.859 507.831 187.869 506.871C187.869 505.911 188.669 505.121 189.649 505.101C190.629 505.091 191.419 505.861 191.409 506.821Z" fill="black"/>
<path d="M174.109 506.821C174.109 507.781 173.309 508.571 172.329 508.591C171.349 508.601 170.559 507.831 170.569 506.871C170.569 505.911 171.369 505.121 172.349 505.101C173.329 505.091 174.119 505.861 174.109 506.821Z" fill="black"/>
<path d="M180.649 516.01C180.649 515.9 181.839 515.74 183.769 515.57C184.259 515.54 184.719 515.46 184.819 515.12C184.949 514.76 184.769 514.21 184.549 513.62C184.139 512.39 183.709 511.1 183.259 509.75C181.479 504.24 180.209 499.71 180.429 499.64C180.649 499.57 182.269 503.98 184.049 509.49C184.479 510.85 184.889 512.14 185.269 513.38C185.429 513.96 185.719 514.62 185.439 515.36C185.289 515.73 184.929 515.98 184.609 516.06C184.289 516.14 184.019 516.14 183.779 516.14C181.839 516.16 180.639 516.12 180.639 516.01H180.649Z" fill="black"/>
<path d="M175.279 498.551C174.999 499.041 173.169 498.431 170.919 498.291C168.669 498.101 166.779 498.421 166.569 497.901C166.479 497.651 166.879 497.221 167.689 496.841C168.489 496.471 169.709 496.201 171.059 496.301C172.409 496.401 173.579 496.851 174.319 497.341C175.069 497.831 175.399 498.321 175.279 498.551Z" fill="black"/>
<path d="M193.438 499.242C193.028 499.672 191.488 499.172 189.618 499.102C187.758 498.972 186.158 499.312 185.808 498.832C185.658 498.602 185.918 498.162 186.618 497.762C187.308 497.362 188.458 497.052 189.738 497.112C191.018 497.182 192.118 497.612 192.758 498.092C193.408 498.572 193.608 499.032 193.428 499.242H193.438Z" fill="black"/>
<path d="M180.978 520.74C181.028 520.87 180.638 521.2 179.848 521.37C179.078 521.54 177.888 521.5 176.778 520.89C175.668 520.28 174.988 519.32 174.698 518.58C174.408 517.83 174.448 517.33 174.588 517.29C174.878 517.19 175.518 518.94 177.308 519.92C179.088 520.91 180.898 520.44 180.978 520.74Z" fill="black"/>
<path d="M182.858 605.729L232.538 599.819L240.898 585.199L247.438 581.599C248.548 580.989 249.908 581.079 250.928 581.819L251.548 582.269L256.398 581.659C257.228 581.559 258.058 581.719 258.788 582.129L262.228 584.089C262.738 584.389 263.048 584.929 263.048 585.509C263.048 586.539 262.118 587.319 261.098 587.129L257.758 586.509L252.648 588.179C252.648 588.179 255.948 588.529 256.368 591.039C256.788 593.549 255.118 593.599 255.118 593.599C255.118 593.599 258.588 595.619 256.158 598.559C256.158 598.559 259.048 600.489 255.808 604.149C253.608 606.629 237.788 614.699 237.788 614.699L182.868 635.119V605.729H182.858Z" fill="#FFBF9D"/>
<path d="M256.018 598.61C256.018 598.61 256.388 598.61 256.828 599.06C257.248 599.49 257.648 600.42 257.358 601.51C257.078 602.6 256.208 603.61 255.218 604.57C254.228 605.55 253.048 606.54 251.728 607.45C249.078 609.28 246.458 610.54 244.558 611.41C242.648 612.27 241.448 612.74 241.418 612.68C241.388 612.61 242.538 612.02 244.398 611.08C246.248 610.13 248.828 608.83 251.428 607.03C252.728 606.13 253.888 605.18 254.878 604.23C255.878 603.3 256.708 602.37 256.998 601.42C257.298 600.48 256.998 599.63 256.668 599.2C256.328 598.76 255.988 598.66 256.018 598.62V598.61Z" fill="#FF9A6C"/>
<path d="M251.358 582.389C251.398 582.529 250.288 582.949 248.878 583.329C247.468 583.709 246.298 583.909 246.258 583.769C246.218 583.629 247.328 583.209 248.738 582.829C250.148 582.449 251.318 582.249 251.358 582.389Z" fill="#FF9A6C"/>
<path d="M257.758 586.509C257.808 586.649 256.258 587.279 254.308 587.929C252.358 588.579 250.738 588.989 250.698 588.859C250.648 588.719 252.198 588.089 254.148 587.439C256.098 586.789 257.718 586.379 257.758 586.509Z" fill="#FF9A6C"/>
<path d="M251.798 593.14C251.648 593.12 251.578 592.69 251.408 592.21C251.248 591.72 251.038 591.34 251.138 591.23C251.238 591.13 251.688 591.43 251.898 592.04C252.108 592.65 251.928 593.17 251.788 593.14H251.798Z" fill="#FF9A6C"/>
<path d="M253.498 598.879C253.348 598.849 253.408 598.139 253.198 597.319C253.008 596.499 252.628 595.889 252.738 595.799C252.828 595.699 253.468 596.239 253.698 597.199C253.938 598.159 253.618 598.929 253.488 598.879H253.498Z" fill="#FF9A6C"/>
<path d="M273.238 611.921C273.238 611.921 273.308 612.001 273.468 612.111C273.628 612.221 273.878 612.371 274.208 612.541C274.878 612.871 275.918 613.281 277.288 613.401C278.648 613.521 280.378 613.351 282.068 612.481C283.748 611.631 285.368 610.101 286.278 608.001L285.958 608.141C287.688 608.761 289.638 609.201 291.688 609.331C292.418 609.381 293.148 609.381 293.868 609.351C294.578 609.311 295.308 609.281 296.008 609.001C296.338 608.871 296.728 608.641 296.918 608.251C297.108 607.881 297.108 607.441 296.968 607.081C296.828 606.711 296.538 606.401 296.178 606.241C295.878 606.111 295.588 605.991 295.298 605.871C292.968 604.901 290.828 604.131 289.008 603.541C287.188 602.951 285.698 602.541 284.668 602.281C283.628 602.021 283.048 601.911 283.048 601.941C283.048 601.981 283.598 602.161 284.618 602.481C285.638 602.801 287.098 603.261 288.898 603.891C290.688 604.521 292.808 605.321 295.118 606.311C295.408 606.441 295.698 606.561 295.988 606.691C296.218 606.801 296.408 607.001 296.498 607.251C296.588 607.501 296.578 607.791 296.458 608.021C296.348 608.251 296.118 608.401 295.818 608.521C295.238 608.751 294.548 608.791 293.848 608.821C293.148 608.851 292.438 608.841 291.728 608.801C289.728 608.681 287.828 608.261 286.138 607.661L285.908 607.581L285.818 607.801C284.978 609.781 283.458 611.251 281.878 612.091C280.288 612.941 278.648 613.151 277.318 613.081C275.988 613.011 274.958 612.661 274.278 612.391C273.598 612.111 273.258 611.901 273.238 611.931V611.921Z" fill="#FF9A6C"/>
<path d="M295.968 605.161C295.838 605.161 296.008 607.451 297.238 609.951C298.448 612.461 300.128 614.011 300.218 613.911C300.338 613.801 298.878 612.141 297.718 609.721C296.538 607.311 296.138 605.141 295.978 605.171L295.968 605.161Z" fill="#FF9A6C"/>
<path d="M289.128 599.311C289.098 599.361 289.988 599.881 291.568 600.481C293.138 601.081 295.428 601.731 298.078 602.001L297.848 601.781C297.918 602.191 297.998 602.631 298.098 603.071C298.758 605.981 300.038 608.401 301.158 609.991C301.718 610.781 302.228 611.381 302.598 611.781C302.978 612.171 303.198 612.371 303.228 612.341C303.298 612.281 302.498 611.391 301.468 609.781C300.448 608.171 299.258 605.791 298.618 602.951C298.518 602.521 298.438 602.101 298.368 601.691L298.328 601.491L298.128 601.471C295.528 601.221 293.268 600.651 291.688 600.141C290.098 599.641 289.168 599.241 289.128 599.311Z" fill="#FF9A6C"/>
<path d="M240.158 625.8L281.938 626.309L332.378 616.319C334.008 615.999 335.258 614.689 335.508 613.039L342.368 567.619C342.708 565.379 340.758 563.459 338.528 563.819L286.968 572.209C285.498 572.449 284.368 573.619 284.188 575.099L278.438 621.289L240.238 621.11C238.938 621.11 237.878 622.159 237.878 623.459C237.878 624.739 238.898 625.779 240.168 625.809L240.158 625.8Z" fill="#E0E0E0"/>
<path d="M240.158 625.8C240.158 625.8 239.878 625.85 239.368 625.67C238.888 625.5 238.108 625 237.858 623.94C237.748 623.43 237.798 622.79 238.138 622.22C238.468 621.66 239.088 621.16 239.868 621.05C241.398 620.99 243.138 621.03 245.108 621.02C252.988 621.04 264.368 621.06 278.428 621.1L278.238 621.26C279.878 607.97 281.828 592.22 283.988 574.78C284.218 573.62 285.068 572.6 286.188 572.18C286.758 571.95 287.328 571.93 287.868 571.82L289.528 571.55C291.748 571.19 293.988 570.82 296.258 570.45C300.788 569.71 305.418 568.96 310.128 568.19C314.838 567.42 319.628 566.64 324.488 565.85C326.918 565.45 329.368 565.06 331.828 564.65C333.058 564.45 334.298 564.25 335.538 564.05L337.398 563.75C338.018 563.67 338.638 563.49 339.338 563.54C340.778 563.65 342.068 564.68 342.488 566.05C342.718 566.72 342.668 567.49 342.548 568.12L342.258 570.06C341.868 572.65 341.478 575.21 341.098 577.76C340.328 582.86 339.568 587.88 338.818 592.81C338.068 597.74 337.338 602.58 336.618 607.31C336.438 608.49 336.258 609.67 336.088 610.84C335.998 611.42 335.908 612.01 335.818 612.59C335.748 613.15 335.628 613.81 335.338 614.35C334.778 615.46 333.708 616.29 332.508 616.54C331.378 616.77 330.248 616.99 329.128 617.21C311.238 620.73 295.228 623.88 281.978 626.49H281.938C268.968 626.3 258.538 626.14 251.318 626.04C247.728 625.98 244.948 625.93 243.038 625.89C242.108 625.87 241.388 625.85 240.888 625.84C240.408 625.83 240.158 625.81 240.158 625.81C240.158 625.81 240.408 625.8 240.888 625.79H243.038C244.948 625.8 247.728 625.82 251.318 625.84C258.538 625.91 268.968 626.01 281.938 626.13H281.898C295.138 623.49 311.138 620.3 329.028 616.74C330.148 616.52 331.268 616.29 332.398 616.07C333.458 615.85 334.408 615.12 334.898 614.13C335.158 613.63 335.258 613.11 335.328 612.52C335.418 611.94 335.508 611.36 335.588 610.77C335.768 609.6 335.938 608.42 336.118 607.24C336.828 602.51 337.558 597.67 338.298 592.74C339.038 587.81 339.798 582.79 340.568 577.69C340.948 575.14 341.338 572.57 341.728 569.99L342.018 568.05C342.138 567.39 342.168 566.81 341.978 566.22C341.628 565.05 340.518 564.16 339.288 564.07C338.718 564.02 338.098 564.19 337.478 564.27L335.618 564.57C334.378 564.77 333.138 564.97 331.908 565.17C329.448 565.57 326.998 565.97 324.568 566.36C319.708 567.15 314.918 567.93 310.208 568.69C305.498 569.45 300.868 570.2 296.338 570.94C294.068 571.31 291.828 571.67 289.608 572.03L287.948 572.3C287.398 572.41 286.828 572.44 286.368 572.63C285.398 573 284.658 573.88 284.458 574.88C282.268 592.3 280.278 608.03 278.608 621.31L278.588 621.48H278.418C264.358 621.38 252.988 621.29 245.098 621.23C243.138 621.23 241.368 621.17 239.888 621.21C239.158 621.3 238.568 621.76 238.248 622.29C237.928 622.82 237.868 623.42 237.958 623.92C238.168 624.94 238.908 625.45 239.378 625.63C239.868 625.82 240.158 625.79 240.148 625.81L240.158 625.8Z" fill="black"/>
<path d="M288.628 573.651C288.768 573.671 287.388 585.731 285.538 600.581C283.688 615.441 282.078 627.471 281.928 627.451C281.788 627.431 283.168 615.371 285.018 600.511C286.868 585.651 288.478 573.621 288.628 573.641V573.651Z" fill="black"/>
<path d="M311.048 592.409C310.694 593.148 310.525 593.918 310.525 594.646C310.524 596.075 311.172 597.343 312.338 597.899C312.882 598.159 313.475 598.234 314.067 598.149C315.39 597.96 316.703 596.972 317.428 595.459C317.646 595.003 317.795 594.536 317.876 594.074C318.009 593.318 317.964 592.577 317.759 591.924C317.487 591.058 316.933 590.348 316.138 589.969C315.341 589.589 314.437 589.604 313.589 589.938C312.565 590.342 311.622 591.211 311.048 592.409Z" fill="#044598"/>
<path d="M189.808 637.23L149.188 628.3L123.118 563.61C123.118 563.61 88.228 571.35 82.468 590.84C77.488 607.69 67.208 682.17 90.578 728.08C96.588 739.89 108.828 747.22 122.078 747.22H299.798C322.238 747.22 341.098 730.36 343.588 708.06C344.588 699.07 345.288 690.53 345.148 684.97L316.608 663.06L189.798 637.23H189.808Z" fill="#6D6D6D"/>
<path d="M131.928 552.76C130.278 553.76 116.228 563.35 118.278 579.07C120.328 594.79 151.428 630.33 157.918 631.01L182.868 635.11V605.72L170.908 605.04L155.188 574.28L131.938 552.75L131.928 552.76Z" fill="#044598"/>
<path d="M229.937 600.121C229.937 600.121 229.487 599.761 228.757 599.031C227.957 598.221 226.927 597.171 225.687 595.911C224.397 594.561 222.867 593.051 221.187 591.181C220.417 590.201 219.737 589.121 218.937 588.061C218.107 586.971 217.477 585.721 216.857 584.441C215.667 581.851 214.767 579.311 213.957 577.001C213.147 574.691 212.437 572.601 211.787 570.881C211.127 569.161 210.537 567.781 210.077 566.861C209.617 565.941 209.327 565.451 209.367 565.421C209.387 565.411 209.477 565.521 209.627 565.751C209.777 565.981 210.027 566.301 210.267 566.761C210.797 567.661 211.447 569.021 212.157 570.741C212.867 572.461 213.617 574.531 214.447 576.831C215.287 579.131 216.197 581.661 217.367 584.211C217.977 585.471 218.587 586.701 219.377 587.741C220.187 588.811 220.867 589.911 221.597 590.871C223.167 592.661 224.737 594.281 225.967 595.641C227.157 596.951 228.147 598.051 228.917 598.891C229.607 599.671 229.967 600.111 229.947 600.131L229.937 600.121Z" fill="black"/>
<path d="M183.358 604.737C183.358 604.737 183.048 604.796 182.468 604.826C181.798 604.856 180.969 604.905 179.948 604.927C177.678 604.977 174.628 605.047 171.008 605.127H170.878L170.798 605.027C168.918 602.507 166.758 599.615 164.478 596.537C160.708 591.447 157.307 586.831 154.898 583.446C153.738 581.816 152.768 580.474 152.048 579.437C151.388 578.487 151.038 577.947 151.068 577.927C151.098 577.907 151.52 578.388 152.228 579.307C152.998 580.307 154.007 581.61 155.218 583.207C157.728 586.517 161.178 591.091 164.928 596.196C167.198 599.286 169.338 602.197 171.198 604.727L170.998 604.627H179.938C180.958 604.647 181.788 604.657 182.458 604.667C183.038 604.687 183.348 604.707 183.348 604.737H183.358Z" fill="black"/>
<path d="M288.178 660.271C286.088 650.361 281.818 640.231 273.368 634.651C266.958 630.421 259.028 629.371 251.398 628.431C198.238 621.891 145.068 615.351 91.908 608.821C90.478 633.961 101.238 665.241 112.208 687.901C113.908 691.421 115.888 695.011 119.148 697.161C123.128 699.781 128.218 699.761 132.978 699.641C186.628 698.271 240.308 695.991 293.648 690.121C290.648 680.451 290.258 670.181 288.168 660.281L288.178 660.271Z" fill="#6D6D6D"/>
<path d="M150.578 616.03C150.578 616.03 149.908 616.03 148.698 615.91C147.398 615.77 145.678 615.58 143.598 615.36C139.298 614.86 133.368 614.13 126.818 613.23C120.278 612.33 114.358 611.42 110.098 610.67C107.968 610.29 106.238 609.98 105.058 609.72C103.878 609.47 103.218 609.31 103.228 609.27C103.238 609.23 103.898 609.32 105.098 609.5C106.388 609.7 108.098 609.96 110.158 610.28C114.438 610.93 120.348 611.77 126.898 612.67C133.398 613.56 139.268 614.37 143.648 614.97C145.718 615.27 147.428 615.51 148.718 615.7C149.918 615.88 150.578 616 150.568 616.04L150.578 616.03Z" fill="black"/>
<path d="M151.398 747.21C151.398 747.21 151.338 747.11 151.228 746.9C151.118 746.66 150.978 746.36 150.788 745.98C150.398 745.13 149.858 743.94 149.168 742.41C148.818 741.63 148.428 740.77 148.008 739.83C147.608 738.88 147.208 737.82 146.768 736.7C145.908 734.44 144.828 731.9 143.908 729C143.428 727.56 142.918 726.04 142.388 724.47C141.868 722.89 141.448 721.21 140.938 719.5C139.888 716.07 139.078 712.33 138.158 708.41C136.518 700.53 135.158 691.76 134.478 682.49C133.878 673.21 134.008 664.34 134.548 656.3C134.918 652.29 135.208 648.47 135.778 644.93C136.038 643.16 136.228 641.44 136.528 639.8C136.838 638.17 137.128 636.6 137.408 635.1C137.908 632.1 138.638 629.43 139.178 627.08C139.468 625.91 139.708 624.81 139.978 623.81C140.268 622.82 140.538 621.91 140.768 621.09C141.248 619.49 141.618 618.23 141.888 617.33C142.018 616.93 142.118 616.61 142.188 616.36C142.258 616.14 142.298 616.03 142.308 616.03C142.308 616.03 142.298 616.15 142.238 616.37L141.988 617.36C141.748 618.26 141.408 619.53 140.968 621.14C140.738 621.96 140.498 622.87 140.218 623.87C139.968 624.87 139.738 625.97 139.468 627.15C138.958 629.51 138.258 632.17 137.788 635.17C137.518 636.67 137.238 638.23 136.948 639.86C136.658 641.49 136.488 643.21 136.228 644.98C135.688 648.51 135.408 652.32 135.058 656.32C134.548 664.33 134.428 673.18 135.028 682.43C135.708 691.68 137.048 700.42 138.658 708.28C139.558 712.19 140.358 715.93 141.378 719.35C141.868 721.07 142.278 722.74 142.788 724.32C143.298 725.9 143.798 727.41 144.268 728.85C145.158 731.76 146.208 734.3 147.038 736.57C147.468 737.7 147.848 738.76 148.238 739.71C148.648 740.66 149.018 741.53 149.358 742.31C150.008 743.85 150.518 745.06 150.888 745.92C151.048 746.31 151.178 746.62 151.268 746.86C151.348 747.07 151.388 747.19 151.378 747.19L151.398 747.21Z" fill="black"/>
<path d="M149.708 696.551C149.708 696.711 146.888 696.701 143.428 696.541C139.968 696.381 137.168 696.121 137.178 695.971C137.178 695.811 139.998 695.821 143.458 695.981C146.918 696.141 149.718 696.401 149.708 696.551Z" fill="black"/>
<path d="M148.258 703.83C148.238 703.97 145.248 703.54 141.818 702.15C138.378 700.77 135.938 698.99 136.018 698.88C136.108 698.74 138.648 700.27 142.028 701.63C145.398 703 148.288 703.67 148.258 703.83Z" fill="black"/>
<path d="M134.289 653.771C134.359 653.901 132.569 654.811 130.139 655.031C127.709 655.271 125.779 654.721 125.819 654.581C125.849 654.411 127.749 654.711 130.079 654.471C132.409 654.261 134.229 653.611 134.289 653.761V653.771Z" fill="black"/>
<path d="M137.478 651.36C137.518 651.5 135.328 651.83 132.898 650.78C130.458 649.76 129.178 647.96 129.298 647.89C129.418 647.77 130.818 649.31 133.118 650.26C135.398 651.25 137.478 651.18 137.478 651.35V651.36Z" fill="black"/>
</g>
</g>
<defs>
<clipPath id="clip0_2_1852">
<rect width="250" height="250" fill="white" transform="translate(626 125)"/>
</clipPath>
<clipPath id="clip1_2_1852">
<rect width="250" height="250" fill="white" transform="translate(825 425)"/>
</clipPath>
<clipPath id="clip2_2_1852">
<rect width="250" height="250" fill="white" transform="translate(282)"/>
</clipPath>
<clipPath id="clip3_2_1852">
<rect width="626" height="485" fill="white" transform="translate(0 305)"/>
</clipPath>
</defs>
</svg>
